<svg xmlns="http://www.w3.org/2000/svg" viewBox="0 0 310.89 310.89"><defs><style>.cls-1{fill:#e6e6e6;}.cls-2,.cls-3{font-size:86.21px;fill:#4d4d4d;}.cls-2{font-family:Montserrat-Light, Montserrat;font-weight:300;}.cls-3{font-family:Montserrat-Medium, Montserrat;font-weight:500;}.cls-4{fill:#b3b3b3;}.cls-5{fill:gray;}.cls-6{fill:none;stroke:#4d4d4d;stroke-miterlimit:10;stroke-width:3px;}</style></defs><g id="Layer_2" data-name="Layer 2"><g id="Layer_1-2" data-name="Layer 1"><rect class="cls-1" width="310.89" height="310.89" rx="12.74"/><text class="cls-2" transform="translate(79.72 111.53)">y</text><text class="cls-2" transform="translate(26.79 111.53)">k</text><text class="cls-2" transform="translate(124.94 111.53)">u</text><text class="cls-3" transform="translate(28.24 184.19)">m</text><text class="cls-3" transform="translate(124.11 183.59)">H</text><text class="cls-3" transform="translate(110.58 184.19)">i</text><rect class="cls-4" x="29.4" y="43" width="3.64" height="73.52" rx="0.57"/><path class="cls-5" d="M221,139.49l-3.64,1.33,1.51,2.81-2.52,1.89s2.79,4.12,2.79,4.29h0a18.06,18.06,0,0,0-2.42-2.22c-.29-.21-.55-.4-.8-.56a20.13,20.13,0,0,0-6.19-2.73,22,22,0,0,0-6.28-1,21.08,21.08,0,0,0-5.53.72A23.18,23.18,0,0,1,208,137.51a27,27,0,0,1,6.79-1,22.88,22.88,0,0,1,5.4.65A9.56,9.56,0,0,0,221,139.49Z"/><path class="cls-6" d="M220.17,137.13a22.69,22.69,0,1,1-27.68,26.29c1,1.12,9,10.18,19.37,8.72,1.84-.26,7.22-1,10-5.39a12.64,12.64,0,0,0,1.77-7.17,13.69,13.69,0,0,0-1.49-5.3,17.93,17.93,0,0,0-1.81-3,15,15,0,0,0-1.23-1.46,18.06,18.06,0,0,0-2.42-2.22c-.29-.21-.55-.4-.8-.56a20.13,20.13,0,0,0-6.19-2.73,22,22,0,0,0-6.28-1,21.08,21.08,0,0,0-5.53.72A23.18,23.18,0,0,1,208,137.51a27,27,0,0,1,6.79-1A22.88,22.88,0,0,1,220.17,137.13Z"/><path class="cls-6" d="M219.16,149.81c0-.17-2.79-4.29-2.79-4.29l2.52-1.89-1.51-2.81,3.64-1.33a9.56,9.56,0,0,1-.85-2.36"/></g></g></svg>