<svg xmlns="http://www.w3.org/2000/svg" viewBox="0 0 422.02 422.02"><defs><style>.cls-1{fill:#333;}.cls-2,.cls-3{font-size:146px;fill:#fff;}.cls-2{font-family:Montserrat-Light, Montserrat;font-weight:300;}.cls-3{font-family:Montserrat-Medium, Montserrat;font-weight:500;}.cls-4{fill:#b3b3b3;}.cls-5{fill:gray;}.cls-6{fill:none;stroke:#f2f2f2;stroke-miterlimit:10;stroke-width:3px;}</style></defs><g id="Layer_2" data-name="Layer 2"><g id="Layer_1-2" data-name="Layer 1"><rect class="cls-1" width="422.02" height="422.02" rx="12.74"/><text class="cls-2" transform="translate(112.43 169)">y</text><text class="cls-2" transform="translate(22.79 169)">k</text><text class="cls-2" transform="translate(189.02 169)">u</text><text class="cls-3" transform="translate(25.25 292.05)">m</text><text class="cls-3" transform="translate(187.6 291.04)">H</text><text class="cls-3" transform="translate(164.7 292.05)">i</text><rect class="cls-4" x="27.22" y="52.94" width="6.17" height="124.5" rx="0.57"/><path class="cls-5" d="M351.73,216.34l-6.17,2.26,2.55,4.75-4.26,3.22s4.72,7,4.72,7.25l0,0a31.3,31.3,0,0,0-4.11-3.76c-.49-.35-.93-.68-1.35-.94a34.29,34.29,0,0,0-10.48-4.63A36.94,36.94,0,0,0,322,222.86a35.19,35.19,0,0,0-9.37,1.23,39.06,39.06,0,0,1,17-11.09,45.78,45.78,0,0,1,11.51-1.75,38.25,38.25,0,0,1,9.14,1.11C350.28,213.42,351.73,216.34,351.73,216.34Z"/><path class="cls-6" d="M350.28,212.36a38.42,38.42,0,1,1-46.87,44.52c1.63,1.89,15.3,17.24,32.8,14.76,3.13-.44,12.23-1.72,17-9.13a21.41,21.41,0,0,0,3-12.13,23.12,23.12,0,0,0-2.52-9,30.41,30.41,0,0,0-3.06-5.07,26.18,26.18,0,0,0-2.08-2.48,31.3,31.3,0,0,0-4.11-3.76c-.49-.35-.93-.68-1.35-.94a34.29,34.29,0,0,0-10.48-4.63A36.94,36.94,0,0,0,322,222.86a35.19,35.19,0,0,0-9.37,1.23,39.06,39.06,0,0,1,17-11.09,45.78,45.78,0,0,1,11.51-1.75A38.25,38.25,0,0,1,350.28,212.36Z"/><path class="cls-6" d="M348.57,233.82c0-.28-4.72-7.25-4.72-7.25l4.26-3.22-2.55-4.75,6.17-2.26s-1.45-2.92-1.45-4"/></g></g></svg>