<svg xmlns="http://www.w3.org/2000/svg" viewBox="0 0 262.51 262.51"><defs><style>.cls-1{fill:#ccc;}.cls-2{fill:#4d4d4d;}</style></defs><g id="Layer_2" data-name="Layer 2"><g id="Layer_1-2" data-name="Layer 1"><rect class="cls-1" width="262.51" height="262.51" rx="12.74"/><path class="cls-2" d="M171.05,100.51,139,181.57q-4.87,13.22-12.06,18.6a28,28,0,0,1-17.34,5.4,33.75,33.75,0,0,1-10.95-1.85,23.61,23.61,0,0,1-8.83-5.11l7.52-15.76a17.26,17.26,0,0,0,5.47,3.55,16,16,0,0,0,6.13,1.28,10.35,10.35,0,0,0,6.86-2.2,18.8,18.8,0,0,0,4.74-7.31l.27-.71L90.08,100.51h21.23l19.91,51.82,20.05-51.82Z"/><path class="cls-2" d="M36.48,141.7l-9.23,10.57v19.57H8.06v-106H27.25v60L55.3,95H78.18L50.62,127.56l30,44.28H57.39Z"/><path class="cls-2" d="M254.79,100.51v72.76h-19v-8.66a26.69,26.69,0,0,1-9.52,7.24,28.76,28.76,0,0,1-12,2.5q-13.64,0-21.6-8.25t-8-24.48V100.51h20.07v38q0,17.58,14,17.58a14.71,14.71,0,0,0,11.58-4.93q4.36-4.93,4.37-14.68v-36Z"/></g></g></svg>